<mxfile host="Electron" agent="Mozilla/5.0 (X11; Linux x86_64) AppleWebKit/537.36 (KHTML, like Gecko) draw.io/26.2.2 Chrome/134.0.6998.178 Electron/35.1.2 Safari/537.36" version="26.2.2">
  <diagram name="Page-1" id="h4Zv29L_1ycJxnzLKH79">
    <mxGraphModel dx="1428" dy="875" grid="1" gridSize="10" guides="1" tooltips="1" connect="1" arrows="1" fold="1" page="1" pageScale="1" pageWidth="850" pageHeight="1100" math="0" shadow="0">
      <root>
        <mxCell id="0" />
        <mxCell id="1" parent="0" />
        <mxCell id="UL_1NSdWHZ_vu-wAV0Hr-275" value="Customer" style="shape=umlLifeline;perimeter=lifelinePerimeter;whiteSpace=wrap;container=1;dropTarget=0;collapsible=0;recursiveResize=0;outlineConnect=0;portConstraint=eastwest;newEdgeStyle={&quot;edgeStyle&quot;:&quot;elbowEdgeStyle&quot;,&quot;elbow&quot;:&quot;vertical&quot;,&quot;curved&quot;:0,&quot;rounded&quot;:0};participant=umlActor;verticalAlign=bottom;labelPosition=center;verticalLabelPosition=top;align=center;size=65;" vertex="1" parent="1">
          <mxGeometry x="20" y="20" width="35" height="5457" as="geometry" />
        </mxCell>
        <mxCell id="UL_1NSdWHZ_vu-wAV0Hr-276" value="Customer UI" style="shape=umlLifeline;perimeter=lifelinePerimeter;whiteSpace=wrap;container=1;dropTarget=0;collapsible=0;recursiveResize=0;outlineConnect=0;portConstraint=eastwest;newEdgeStyle={&quot;edgeStyle&quot;:&quot;elbowEdgeStyle&quot;,&quot;elbow&quot;:&quot;vertical&quot;,&quot;curved&quot;:0,&quot;rounded&quot;:0};size=65;" vertex="1" parent="1">
          <mxGeometry x="347" y="20" width="150" height="5457" as="geometry" />
        </mxCell>
        <mxCell id="UL_1NSdWHZ_vu-wAV0Hr-277" value="API Gateway" style="shape=umlLifeline;perimeter=lifelinePerimeter;whiteSpace=wrap;container=1;dropTarget=0;collapsible=0;recursiveResize=0;outlineConnect=0;portConstraint=eastwest;newEdgeStyle={&quot;edgeStyle&quot;:&quot;elbowEdgeStyle&quot;,&quot;elbow&quot;:&quot;vertical&quot;,&quot;curved&quot;:0,&quot;rounded&quot;:0};size=65;" vertex="1" parent="1">
          <mxGeometry x="851" y="20" width="150" height="5457" as="geometry" />
        </mxCell>
        <mxCell id="UL_1NSdWHZ_vu-wAV0Hr-278" value="Auth Service" style="shape=umlLifeline;perimeter=lifelinePerimeter;whiteSpace=wrap;container=1;dropTarget=0;collapsible=0;recursiveResize=0;outlineConnect=0;portConstraint=eastwest;newEdgeStyle={&quot;edgeStyle&quot;:&quot;elbowEdgeStyle&quot;,&quot;elbow&quot;:&quot;vertical&quot;,&quot;curved&quot;:0,&quot;rounded&quot;:0};size=65;" vertex="1" parent="1">
          <mxGeometry x="1139" y="20" width="150" height="5457" as="geometry" />
        </mxCell>
        <mxCell id="UL_1NSdWHZ_vu-wAV0Hr-279" value="User Service" style="shape=umlLifeline;perimeter=lifelinePerimeter;whiteSpace=wrap;container=1;dropTarget=0;collapsible=0;recursiveResize=0;outlineConnect=0;portConstraint=eastwest;newEdgeStyle={&quot;edgeStyle&quot;:&quot;elbowEdgeStyle&quot;,&quot;elbow&quot;:&quot;vertical&quot;,&quot;curved&quot;:0,&quot;rounded&quot;:0};size=65;" vertex="1" parent="1">
          <mxGeometry x="1452" y="20" width="150" height="5457" as="geometry" />
        </mxCell>
        <mxCell id="UL_1NSdWHZ_vu-wAV0Hr-280" value="Hotel Service" style="shape=umlLifeline;perimeter=lifelinePerimeter;whiteSpace=wrap;container=1;dropTarget=0;collapsible=0;recursiveResize=0;outlineConnect=0;portConstraint=eastwest;newEdgeStyle={&quot;edgeStyle&quot;:&quot;elbowEdgeStyle&quot;,&quot;elbow&quot;:&quot;vertical&quot;,&quot;curved&quot;:0,&quot;rounded&quot;:0};size=65;" vertex="1" parent="1">
          <mxGeometry x="1652" y="20" width="150" height="5457" as="geometry" />
        </mxCell>
        <mxCell id="UL_1NSdWHZ_vu-wAV0Hr-281" value="Room Service" style="shape=umlLifeline;perimeter=lifelinePerimeter;whiteSpace=wrap;container=1;dropTarget=0;collapsible=0;recursiveResize=0;outlineConnect=0;portConstraint=eastwest;newEdgeStyle={&quot;edgeStyle&quot;:&quot;elbowEdgeStyle&quot;,&quot;elbow&quot;:&quot;vertical&quot;,&quot;curved&quot;:0,&quot;rounded&quot;:0};size=65;" vertex="1" parent="1">
          <mxGeometry x="1913" y="20" width="150" height="5457" as="geometry" />
        </mxCell>
        <mxCell id="UL_1NSdWHZ_vu-wAV0Hr-282" value="Reservation Service" style="shape=umlLifeline;perimeter=lifelinePerimeter;whiteSpace=wrap;container=1;dropTarget=0;collapsible=0;recursiveResize=0;outlineConnect=0;portConstraint=eastwest;newEdgeStyle={&quot;edgeStyle&quot;:&quot;elbowEdgeStyle&quot;,&quot;elbow&quot;:&quot;vertical&quot;,&quot;curved&quot;:0,&quot;rounded&quot;:0};size=65;" vertex="1" parent="1">
          <mxGeometry x="2226" y="20" width="179" height="5457" as="geometry" />
        </mxCell>
        <mxCell id="UL_1NSdWHZ_vu-wAV0Hr-283" value="Payment Service" style="shape=umlLifeline;perimeter=lifelinePerimeter;whiteSpace=wrap;container=1;dropTarget=0;collapsible=0;recursiveResize=0;outlineConnect=0;portConstraint=eastwest;newEdgeStyle={&quot;edgeStyle&quot;:&quot;elbowEdgeStyle&quot;,&quot;elbow&quot;:&quot;vertical&quot;,&quot;curved&quot;:0,&quot;rounded&quot;:0};size=65;" vertex="1" parent="1">
          <mxGeometry x="2455" y="20" width="154" height="5457" as="geometry" />
        </mxCell>
        <mxCell id="UL_1NSdWHZ_vu-wAV0Hr-284" value="Notification Service" style="shape=umlLifeline;perimeter=lifelinePerimeter;whiteSpace=wrap;container=1;dropTarget=0;collapsible=0;recursiveResize=0;outlineConnect=0;portConstraint=eastwest;newEdgeStyle={&quot;edgeStyle&quot;:&quot;elbowEdgeStyle&quot;,&quot;elbow&quot;:&quot;vertical&quot;,&quot;curved&quot;:0,&quot;rounded&quot;:0};size=65;" vertex="1" parent="1">
          <mxGeometry x="2659" y="20" width="176" height="5457" as="geometry" />
        </mxCell>
        <mxCell id="UL_1NSdWHZ_vu-wAV0Hr-285" value="Email Service" style="shape=umlLifeline;perimeter=lifelinePerimeter;whiteSpace=wrap;container=1;dropTarget=0;collapsible=0;recursiveResize=0;outlineConnect=0;portConstraint=eastwest;newEdgeStyle={&quot;edgeStyle&quot;:&quot;elbowEdgeStyle&quot;,&quot;elbow&quot;:&quot;vertical&quot;,&quot;curved&quot;:0,&quot;rounded&quot;:0};size=65;" vertex="1" parent="1">
          <mxGeometry x="3165" y="20" width="150" height="5457" as="geometry" />
        </mxCell>
        <mxCell id="UL_1NSdWHZ_vu-wAV0Hr-286" value="Hotel Admin" style="shape=umlLifeline;perimeter=lifelinePerimeter;whiteSpace=wrap;container=1;dropTarget=0;collapsible=0;recursiveResize=0;outlineConnect=0;portConstraint=eastwest;newEdgeStyle={&quot;edgeStyle&quot;:&quot;elbowEdgeStyle&quot;,&quot;elbow&quot;:&quot;vertical&quot;,&quot;curved&quot;:0,&quot;rounded&quot;:0};size=65;" vertex="1" parent="1">
          <mxGeometry x="3365" y="20" width="150" height="5457" as="geometry" />
        </mxCell>
        <mxCell id="UL_1NSdWHZ_vu-wAV0Hr-287" value="alt" style="shape=umlFrame;dashed=1;pointerEvents=0;dropTarget=0;strokeColor=#B3B3B3;height=20;width=30;strokeWidth=5;" vertex="1" parent="1">
          <mxGeometry x="84" y="908" width="1141" height="378" as="geometry" />
        </mxCell>
        <mxCell id="UL_1NSdWHZ_vu-wAV0Hr-288" value="[Successful login]" style="text;strokeColor=none;fillColor=none;align=center;verticalAlign=middle;whiteSpace=wrap;" vertex="1" parent="UL_1NSdWHZ_vu-wAV0Hr-287">
          <mxGeometry x="30" width="1111" height="20" as="geometry" />
        </mxCell>
        <mxCell id="UL_1NSdWHZ_vu-wAV0Hr-289" value="[Failed login]" style="shape=line;dashed=1;whiteSpace=wrap;verticalAlign=top;labelPosition=center;verticalLabelPosition=middle;align=center;strokeColor=#B3B3B3;strokeWidth=5;" vertex="1" parent="UL_1NSdWHZ_vu-wAV0Hr-287">
          <mxGeometry y="194" width="1141" height="2" as="geometry" />
        </mxCell>
        <mxCell id="UL_1NSdWHZ_vu-wAV0Hr-290" value="alt" style="shape=umlFrame;dashed=1;pointerEvents=0;dropTarget=0;strokeColor=#B3B3B3;height=20;width=30;strokeWidth=5;" vertex="1" parent="1">
          <mxGeometry x="60" y="143" width="1939" height="1245" as="geometry" />
        </mxCell>
        <mxCell id="UL_1NSdWHZ_vu-wAV0Hr-291" value="[Guest browsing]" style="text;strokeColor=none;fillColor=none;align=center;verticalAlign=middle;whiteSpace=wrap;" vertex="1" parent="UL_1NSdWHZ_vu-wAV0Hr-290">
          <mxGeometry x="30" width="1909" height="20" as="geometry" />
        </mxCell>
        <mxCell id="UL_1NSdWHZ_vu-wAV0Hr-292" value="[Already logged in]" style="shape=line;dashed=1;whiteSpace=wrap;verticalAlign=top;labelPosition=center;verticalLabelPosition=middle;align=center;strokeColor=#B3B3B3;" vertex="1" parent="UL_1NSdWHZ_vu-wAV0Hr-290">
          <mxGeometry y="1158" width="1939" height="2" as="geometry" />
        </mxCell>
        <mxCell id="UL_1NSdWHZ_vu-wAV0Hr-293" value="alt" style="shape=umlFrame;dashed=1;pointerEvents=0;dropTarget=0;strokeColor=#B3B3B3;height=20;width=30;strokeWidth=5;" vertex="1" parent="1">
          <mxGeometry x="84" y="3648" width="3167" height="958" as="geometry" />
        </mxCell>
        <mxCell id="UL_1NSdWHZ_vu-wAV0Hr-294" value="[Successful payment]" style="text;strokeColor=none;fillColor=none;align=center;verticalAlign=middle;whiteSpace=wrap;" vertex="1" parent="UL_1NSdWHZ_vu-wAV0Hr-293">
          <mxGeometry x="30" width="3137" height="20" as="geometry" />
        </mxCell>
        <mxCell id="UL_1NSdWHZ_vu-wAV0Hr-295" value="[Failed payment]" style="shape=line;dashed=1;whiteSpace=wrap;verticalAlign=top;labelPosition=center;verticalLabelPosition=middle;align=center;strokeColor=#B3B3B3;" vertex="1" parent="UL_1NSdWHZ_vu-wAV0Hr-293">
          <mxGeometry y="582" width="3167" height="2" as="geometry" />
        </mxCell>
        <mxCell id="UL_1NSdWHZ_vu-wAV0Hr-296" value="alt" style="shape=umlFrame;dashed=1;pointerEvents=0;dropTarget=0;strokeColor=#B3B3B3;height=20;width=30;strokeWidth=5;" vertex="1" parent="1">
          <mxGeometry x="84" y="4712" width="3367" height="670" as="geometry" />
        </mxCell>
        <mxCell id="UL_1NSdWHZ_vu-wAV0Hr-297" value="[Manual acceptance required]" style="text;strokeColor=none;fillColor=none;align=center;verticalAlign=middle;whiteSpace=wrap;" vertex="1" parent="UL_1NSdWHZ_vu-wAV0Hr-296">
          <mxGeometry x="30" width="3337" height="20" as="geometry" />
        </mxCell>
        <mxCell id="UL_1NSdWHZ_vu-wAV0Hr-298" value="Open reservation portal" style="verticalAlign=bottom;edgeStyle=elbowEdgeStyle;elbow=vertical;curved=0;rounded=0;endArrow=block;" edge="1" parent="1" source="UL_1NSdWHZ_vu-wAV0Hr-275" target="UL_1NSdWHZ_vu-wAV0Hr-276">
          <mxGeometry relative="1" as="geometry">
            <Array as="points">
              <mxPoint x="267" y="123" />
            </Array>
          </mxGeometry>
        </mxCell>
        <mxCell id="UL_1NSdWHZ_vu-wAV0Hr-299" value="Search hotels (location, dates)" style="verticalAlign=bottom;edgeStyle=elbowEdgeStyle;elbow=vertical;curved=0;rounded=0;endArrow=block;" edge="1" parent="1" source="UL_1NSdWHZ_vu-wAV0Hr-275" target="UL_1NSdWHZ_vu-wAV0Hr-276">
          <mxGeometry relative="1" as="geometry">
            <Array as="points">
              <mxPoint x="267" y="216" />
            </Array>
          </mxGeometry>
        </mxCell>
        <mxCell id="UL_1NSdWHZ_vu-wAV0Hr-300" value="GET /hotels?location=X&amp;checkIn=Y&amp;checkOut=Z" style="verticalAlign=bottom;edgeStyle=elbowEdgeStyle;elbow=vertical;curved=0;rounded=0;endArrow=block;" edge="1" parent="1" source="UL_1NSdWHZ_vu-wAV0Hr-276" target="UL_1NSdWHZ_vu-wAV0Hr-277">
          <mxGeometry relative="1" as="geometry">
            <Array as="points">
              <mxPoint x="683" y="264" />
            </Array>
          </mxGeometry>
        </mxCell>
        <mxCell id="UL_1NSdWHZ_vu-wAV0Hr-301" value="getHotels(filters)" style="verticalAlign=bottom;edgeStyle=elbowEdgeStyle;elbow=vertical;curved=0;rounded=0;endArrow=block;" edge="1" parent="1" source="UL_1NSdWHZ_vu-wAV0Hr-277" target="UL_1NSdWHZ_vu-wAV0Hr-280">
          <mxGeometry relative="1" as="geometry">
            <Array as="points">
              <mxPoint x="1335" y="312" />
            </Array>
          </mxGeometry>
        </mxCell>
        <mxCell id="UL_1NSdWHZ_vu-wAV0Hr-302" value="checkAvailability(dates)" style="verticalAlign=bottom;edgeStyle=elbowEdgeStyle;elbow=vertical;curved=0;rounded=0;endArrow=block;" edge="1" parent="1" source="UL_1NSdWHZ_vu-wAV0Hr-280" target="UL_1NSdWHZ_vu-wAV0Hr-281">
          <mxGeometry relative="1" as="geometry">
            <Array as="points">
              <mxPoint x="1866" y="360" />
            </Array>
          </mxGeometry>
        </mxCell>
        <mxCell id="UL_1NSdWHZ_vu-wAV0Hr-303" value="available rooms" style="verticalAlign=bottom;edgeStyle=elbowEdgeStyle;elbow=vertical;curved=0;rounded=0;dashed=1;dashPattern=2 3;endArrow=block;" edge="1" parent="1" source="UL_1NSdWHZ_vu-wAV0Hr-281" target="UL_1NSdWHZ_vu-wAV0Hr-280">
          <mxGeometry relative="1" as="geometry">
            <Array as="points">
              <mxPoint x="1869" y="408" />
            </Array>
          </mxGeometry>
        </mxCell>
        <mxCell id="UL_1NSdWHZ_vu-wAV0Hr-304" value="hotels with availability" style="verticalAlign=bottom;edgeStyle=elbowEdgeStyle;elbow=vertical;curved=0;rounded=0;dashed=1;dashPattern=2 3;endArrow=block;" edge="1" parent="1" source="UL_1NSdWHZ_vu-wAV0Hr-280" target="UL_1NSdWHZ_vu-wAV0Hr-277">
          <mxGeometry relative="1" as="geometry">
            <Array as="points">
              <mxPoint x="1338" y="456" />
            </Array>
          </mxGeometry>
        </mxCell>
        <mxCell id="UL_1NSdWHZ_vu-wAV0Hr-305" value="filtered hotel list" style="verticalAlign=bottom;edgeStyle=elbowEdgeStyle;elbow=vertical;curved=0;rounded=0;dashed=1;dashPattern=2 3;endArrow=block;" edge="1" parent="1" source="UL_1NSdWHZ_vu-wAV0Hr-277" target="UL_1NSdWHZ_vu-wAV0Hr-276">
          <mxGeometry relative="1" as="geometry">
            <Array as="points">
              <mxPoint x="686" y="504" />
            </Array>
          </mxGeometry>
        </mxCell>
        <mxCell id="UL_1NSdWHZ_vu-wAV0Hr-306" value="display hotel results" style="verticalAlign=bottom;edgeStyle=elbowEdgeStyle;elbow=vertical;curved=0;rounded=0;dashed=1;dashPattern=2 3;endArrow=block;" edge="1" parent="1" source="UL_1NSdWHZ_vu-wAV0Hr-276" target="UL_1NSdWHZ_vu-wAV0Hr-275">
          <mxGeometry relative="1" as="geometry">
            <Array as="points">
              <mxPoint x="270" y="552" />
            </Array>
          </mxGeometry>
        </mxCell>
        <mxCell id="UL_1NSdWHZ_vu-wAV0Hr-307" value="Select hotel and room" style="verticalAlign=bottom;edgeStyle=elbowEdgeStyle;elbow=vertical;curved=0;rounded=0;endArrow=block;" edge="1" parent="1" source="UL_1NSdWHZ_vu-wAV0Hr-275" target="UL_1NSdWHZ_vu-wAV0Hr-276">
          <mxGeometry relative="1" as="geometry">
            <Array as="points">
              <mxPoint x="267" y="600" />
            </Array>
          </mxGeometry>
        </mxCell>
        <mxCell id="UL_1NSdWHZ_vu-wAV0Hr-308" value="Prompt to login or register" style="verticalAlign=bottom;edgeStyle=elbowEdgeStyle;elbow=vertical;curved=0;rounded=0;dashed=1;dashPattern=2 3;endArrow=block;" edge="1" parent="1" source="UL_1NSdWHZ_vu-wAV0Hr-276" target="UL_1NSdWHZ_vu-wAV0Hr-275">
          <mxGeometry relative="1" as="geometry">
            <Array as="points">
              <mxPoint x="270" y="648" />
            </Array>
          </mxGeometry>
        </mxCell>
        <mxCell id="UL_1NSdWHZ_vu-wAV0Hr-309" value="Enter login credentials" style="verticalAlign=bottom;edgeStyle=elbowEdgeStyle;elbow=vertical;curved=0;rounded=0;endArrow=block;" edge="1" parent="1" source="UL_1NSdWHZ_vu-wAV0Hr-275" target="UL_1NSdWHZ_vu-wAV0Hr-276">
          <mxGeometry relative="1" as="geometry">
            <Array as="points">
              <mxPoint x="267" y="696" />
            </Array>
          </mxGeometry>
        </mxCell>
        <mxCell id="UL_1NSdWHZ_vu-wAV0Hr-310" value="POST /auth/login" style="verticalAlign=bottom;edgeStyle=elbowEdgeStyle;elbow=vertical;curved=0;rounded=0;endArrow=block;" edge="1" parent="1" source="UL_1NSdWHZ_vu-wAV0Hr-276" target="UL_1NSdWHZ_vu-wAV0Hr-277">
          <mxGeometry relative="1" as="geometry">
            <Array as="points">
              <mxPoint x="683" y="744" />
            </Array>
          </mxGeometry>
        </mxCell>
        <mxCell id="UL_1NSdWHZ_vu-wAV0Hr-311" value="login(email, password)" style="verticalAlign=bottom;edgeStyle=elbowEdgeStyle;elbow=vertical;curved=0;rounded=0;endArrow=block;" edge="1" parent="1" source="UL_1NSdWHZ_vu-wAV0Hr-277" target="UL_1NSdWHZ_vu-wAV0Hr-278">
          <mxGeometry relative="1" as="geometry">
            <Array as="points">
              <mxPoint x="1079" y="792" />
            </Array>
          </mxGeometry>
        </mxCell>
        <mxCell id="UL_1NSdWHZ_vu-wAV0Hr-312" value="validateUser(email, password)" style="verticalAlign=bottom;edgeStyle=elbowEdgeStyle;elbow=vertical;curved=0;rounded=0;endArrow=block;" edge="1" parent="1" source="UL_1NSdWHZ_vu-wAV0Hr-278" target="UL_1NSdWHZ_vu-wAV0Hr-279">
          <mxGeometry relative="1" as="geometry">
            <Array as="points">
              <mxPoint x="1379" y="840" />
            </Array>
          </mxGeometry>
        </mxCell>
        <mxCell id="UL_1NSdWHZ_vu-wAV0Hr-313" value="validation result" style="verticalAlign=bottom;edgeStyle=elbowEdgeStyle;elbow=vertical;curved=0;rounded=0;dashed=1;dashPattern=2 3;endArrow=block;" edge="1" parent="1" source="UL_1NSdWHZ_vu-wAV0Hr-279" target="UL_1NSdWHZ_vu-wAV0Hr-278">
          <mxGeometry relative="1" as="geometry">
            <Array as="points">
              <mxPoint x="1382" y="888" />
            </Array>
          </mxGeometry>
        </mxCell>
        <mxCell id="UL_1NSdWHZ_vu-wAV0Hr-314" value="JWT token" style="verticalAlign=bottom;edgeStyle=elbowEdgeStyle;elbow=vertical;curved=0;rounded=0;dashed=1;dashPattern=2 3;endArrow=block;" edge="1" parent="1" source="UL_1NSdWHZ_vu-wAV0Hr-278" target="UL_1NSdWHZ_vu-wAV0Hr-277">
          <mxGeometry relative="1" as="geometry">
            <Array as="points">
              <mxPoint x="1082" y="981" />
            </Array>
          </mxGeometry>
        </mxCell>
        <mxCell id="UL_1NSdWHZ_vu-wAV0Hr-315" value="Auth success with token" style="verticalAlign=bottom;edgeStyle=elbowEdgeStyle;elbow=vertical;curved=0;rounded=0;dashed=1;dashPattern=2 3;endArrow=block;" edge="1" parent="1" source="UL_1NSdWHZ_vu-wAV0Hr-277" target="UL_1NSdWHZ_vu-wAV0Hr-276">
          <mxGeometry relative="1" as="geometry">
            <Array as="points">
              <mxPoint x="686" y="1029" />
            </Array>
          </mxGeometry>
        </mxCell>
        <mxCell id="UL_1NSdWHZ_vu-wAV0Hr-316" value="Login successful" style="verticalAlign=bottom;edgeStyle=elbowEdgeStyle;elbow=vertical;curved=0;rounded=0;dashed=1;dashPattern=2 3;endArrow=block;" edge="1" parent="1" source="UL_1NSdWHZ_vu-wAV0Hr-276" target="UL_1NSdWHZ_vu-wAV0Hr-275">
          <mxGeometry relative="1" as="geometry">
            <Array as="points">
              <mxPoint x="270" y="1077" />
            </Array>
          </mxGeometry>
        </mxCell>
        <mxCell id="UL_1NSdWHZ_vu-wAV0Hr-317" value="Auth error" style="verticalAlign=bottom;edgeStyle=elbowEdgeStyle;elbow=vertical;curved=0;rounded=0;dashed=1;dashPattern=2 3;endArrow=block;" edge="1" parent="1" source="UL_1NSdWHZ_vu-wAV0Hr-278" target="UL_1NSdWHZ_vu-wAV0Hr-277">
          <mxGeometry relative="1" as="geometry">
            <Array as="points">
              <mxPoint x="1082" y="1170" />
            </Array>
          </mxGeometry>
        </mxCell>
        <mxCell id="UL_1NSdWHZ_vu-wAV0Hr-318" value="Auth failed" style="verticalAlign=bottom;edgeStyle=elbowEdgeStyle;elbow=vertical;curved=0;rounded=0;dashed=1;dashPattern=2 3;endArrow=block;" edge="1" parent="1" source="UL_1NSdWHZ_vu-wAV0Hr-277" target="UL_1NSdWHZ_vu-wAV0Hr-276">
          <mxGeometry relative="1" as="geometry">
            <Array as="points">
              <mxPoint x="686" y="1218" />
            </Array>
          </mxGeometry>
        </mxCell>
        <mxCell id="UL_1NSdWHZ_vu-wAV0Hr-319" value="Display error, try again" style="verticalAlign=bottom;edgeStyle=elbowEdgeStyle;elbow=vertical;curved=0;rounded=0;dashed=1;dashPattern=2 3;endArrow=block;" edge="1" parent="1" source="UL_1NSdWHZ_vu-wAV0Hr-276" target="UL_1NSdWHZ_vu-wAV0Hr-275">
          <mxGeometry relative="1" as="geometry">
            <Array as="points">
              <mxPoint x="270" y="1266" />
            </Array>
          </mxGeometry>
        </mxCell>
        <mxCell id="UL_1NSdWHZ_vu-wAV0Hr-320" value="Select hotel" style="verticalAlign=bottom;edgeStyle=elbowEdgeStyle;elbow=vertical;curved=0;rounded=0;endArrow=block;" edge="1" parent="1" source="UL_1NSdWHZ_vu-wAV0Hr-275" target="UL_1NSdWHZ_vu-wAV0Hr-276">
          <mxGeometry relative="1" as="geometry">
            <Array as="points">
              <mxPoint x="267" y="1426" />
            </Array>
          </mxGeometry>
        </mxCell>
        <mxCell id="UL_1NSdWHZ_vu-wAV0Hr-321" value="GET /hotels/{hotelId}" style="verticalAlign=bottom;edgeStyle=elbowEdgeStyle;elbow=vertical;curved=0;rounded=0;endArrow=block;" edge="1" parent="1" source="UL_1NSdWHZ_vu-wAV0Hr-276" target="UL_1NSdWHZ_vu-wAV0Hr-277">
          <mxGeometry relative="1" as="geometry">
            <Array as="points">
              <mxPoint x="683" y="1474" />
            </Array>
          </mxGeometry>
        </mxCell>
        <mxCell id="UL_1NSdWHZ_vu-wAV0Hr-322" value="validateToken(token)" style="verticalAlign=bottom;edgeStyle=elbowEdgeStyle;elbow=vertical;curved=0;rounded=0;endArrow=block;" edge="1" parent="1" source="UL_1NSdWHZ_vu-wAV0Hr-277" target="UL_1NSdWHZ_vu-wAV0Hr-278">
          <mxGeometry relative="1" as="geometry">
            <Array as="points">
              <mxPoint x="1079" y="1569" />
            </Array>
          </mxGeometry>
        </mxCell>
        <mxCell id="UL_1NSdWHZ_vu-wAV0Hr-323" value="token valid" style="verticalAlign=bottom;edgeStyle=elbowEdgeStyle;elbow=vertical;curved=0;rounded=0;dashed=1;dashPattern=2 3;endArrow=block;" edge="1" parent="1" source="UL_1NSdWHZ_vu-wAV0Hr-278" target="UL_1NSdWHZ_vu-wAV0Hr-277">
          <mxGeometry relative="1" as="geometry">
            <Array as="points">
              <mxPoint x="1082" y="1617" />
            </Array>
          </mxGeometry>
        </mxCell>
        <mxCell id="UL_1NSdWHZ_vu-wAV0Hr-324" value="getHotelById(hotelId)" style="verticalAlign=bottom;edgeStyle=elbowEdgeStyle;elbow=vertical;curved=0;rounded=0;endArrow=block;" edge="1" parent="1" source="UL_1NSdWHZ_vu-wAV0Hr-277" target="UL_1NSdWHZ_vu-wAV0Hr-280">
          <mxGeometry relative="1" as="geometry">
            <Array as="points">
              <mxPoint x="1335" y="1665" />
            </Array>
          </mxGeometry>
        </mxCell>
        <mxCell id="UL_1NSdWHZ_vu-wAV0Hr-325" value="hotel details" style="verticalAlign=bottom;edgeStyle=elbowEdgeStyle;elbow=vertical;curved=0;rounded=0;dashed=1;dashPattern=2 3;endArrow=block;" edge="1" parent="1" source="UL_1NSdWHZ_vu-wAV0Hr-280" target="UL_1NSdWHZ_vu-wAV0Hr-277">
          <mxGeometry relative="1" as="geometry">
            <Array as="points">
              <mxPoint x="1338" y="1713" />
            </Array>
          </mxGeometry>
        </mxCell>
        <mxCell id="UL_1NSdWHZ_vu-wAV0Hr-326" value="hotel data" style="verticalAlign=bottom;edgeStyle=elbowEdgeStyle;elbow=vertical;curved=0;rounded=0;dashed=1;dashPattern=2 3;endArrow=block;" edge="1" parent="1" source="UL_1NSdWHZ_vu-wAV0Hr-277" target="UL_1NSdWHZ_vu-wAV0Hr-276">
          <mxGeometry relative="1" as="geometry">
            <Array as="points">
              <mxPoint x="686" y="1761" />
            </Array>
          </mxGeometry>
        </mxCell>
        <mxCell id="UL_1NSdWHZ_vu-wAV0Hr-327" value="display hotel details" style="verticalAlign=bottom;edgeStyle=elbowEdgeStyle;elbow=vertical;curved=0;rounded=0;dashed=1;dashPattern=2 3;endArrow=block;" edge="1" parent="1" source="UL_1NSdWHZ_vu-wAV0Hr-276" target="UL_1NSdWHZ_vu-wAV0Hr-275">
          <mxGeometry relative="1" as="geometry">
            <Array as="points">
              <mxPoint x="270" y="1809" />
            </Array>
          </mxGeometry>
        </mxCell>
        <mxCell id="UL_1NSdWHZ_vu-wAV0Hr-328" value="View available rooms" style="verticalAlign=bottom;edgeStyle=elbowEdgeStyle;elbow=vertical;curved=0;rounded=0;endArrow=block;" edge="1" parent="1" source="UL_1NSdWHZ_vu-wAV0Hr-275" target="UL_1NSdWHZ_vu-wAV0Hr-276">
          <mxGeometry relative="1" as="geometry">
            <Array as="points">
              <mxPoint x="267" y="1857" />
            </Array>
          </mxGeometry>
        </mxCell>
        <mxCell id="UL_1NSdWHZ_vu-wAV0Hr-329" value="GET /hotels/{hotelId}/rooms?checkIn=Y&amp;checkOut=Z" style="verticalAlign=bottom;edgeStyle=elbowEdgeStyle;elbow=vertical;curved=0;rounded=0;endArrow=block;" edge="1" parent="1" source="UL_1NSdWHZ_vu-wAV0Hr-276" target="UL_1NSdWHZ_vu-wAV0Hr-277">
          <mxGeometry relative="1" as="geometry">
            <Array as="points">
              <mxPoint x="683" y="1905" />
            </Array>
          </mxGeometry>
        </mxCell>
        <mxCell id="UL_1NSdWHZ_vu-wAV0Hr-330" value="getAvailableRooms(hotelId, dates)" style="verticalAlign=bottom;edgeStyle=elbowEdgeStyle;elbow=vertical;curved=0;rounded=0;endArrow=block;" edge="1" parent="1" source="UL_1NSdWHZ_vu-wAV0Hr-277" target="UL_1NSdWHZ_vu-wAV0Hr-281">
          <mxGeometry relative="1" as="geometry">
            <Array as="points">
              <mxPoint x="1466" y="1953" />
            </Array>
          </mxGeometry>
        </mxCell>
        <mxCell id="UL_1NSdWHZ_vu-wAV0Hr-331" value="available rooms with details" style="verticalAlign=bottom;edgeStyle=elbowEdgeStyle;elbow=vertical;curved=0;rounded=0;dashed=1;dashPattern=2 3;endArrow=block;" edge="1" parent="1" source="UL_1NSdWHZ_vu-wAV0Hr-281" target="UL_1NSdWHZ_vu-wAV0Hr-277">
          <mxGeometry relative="1" as="geometry">
            <Array as="points">
              <mxPoint x="1469" y="2001" />
            </Array>
          </mxGeometry>
        </mxCell>
        <mxCell id="UL_1NSdWHZ_vu-wAV0Hr-332" value="rooms data" style="verticalAlign=bottom;edgeStyle=elbowEdgeStyle;elbow=vertical;curved=0;rounded=0;dashed=1;dashPattern=2 3;endArrow=block;" edge="1" parent="1" source="UL_1NSdWHZ_vu-wAV0Hr-277" target="UL_1NSdWHZ_vu-wAV0Hr-276">
          <mxGeometry relative="1" as="geometry">
            <Array as="points">
              <mxPoint x="686" y="2049" />
            </Array>
          </mxGeometry>
        </mxCell>
        <mxCell id="UL_1NSdWHZ_vu-wAV0Hr-333" value="display available rooms" style="verticalAlign=bottom;edgeStyle=elbowEdgeStyle;elbow=vertical;curved=0;rounded=0;dashed=1;dashPattern=2 3;endArrow=block;" edge="1" parent="1" source="UL_1NSdWHZ_vu-wAV0Hr-276" target="UL_1NSdWHZ_vu-wAV0Hr-275">
          <mxGeometry relative="1" as="geometry">
            <Array as="points">
              <mxPoint x="270" y="2097" />
            </Array>
          </mxGeometry>
        </mxCell>
        <mxCell id="UL_1NSdWHZ_vu-wAV0Hr-334" value="Select room" style="verticalAlign=bottom;edgeStyle=elbowEdgeStyle;elbow=vertical;curved=0;rounded=0;endArrow=block;" edge="1" parent="1" source="UL_1NSdWHZ_vu-wAV0Hr-275" target="UL_1NSdWHZ_vu-wAV0Hr-276">
          <mxGeometry relative="1" as="geometry">
            <Array as="points">
              <mxPoint x="267" y="2145" />
            </Array>
          </mxGeometry>
        </mxCell>
        <mxCell id="UL_1NSdWHZ_vu-wAV0Hr-335" value="GET /rooms/{roomId}" style="verticalAlign=bottom;edgeStyle=elbowEdgeStyle;elbow=vertical;curved=0;rounded=0;endArrow=block;" edge="1" parent="1" source="UL_1NSdWHZ_vu-wAV0Hr-276" target="UL_1NSdWHZ_vu-wAV0Hr-277">
          <mxGeometry relative="1" as="geometry">
            <Array as="points">
              <mxPoint x="683" y="2193" />
            </Array>
          </mxGeometry>
        </mxCell>
        <mxCell id="UL_1NSdWHZ_vu-wAV0Hr-336" value="getRoomById(roomId)" style="verticalAlign=bottom;edgeStyle=elbowEdgeStyle;elbow=vertical;curved=0;rounded=0;endArrow=block;" edge="1" parent="1" source="UL_1NSdWHZ_vu-wAV0Hr-277" target="UL_1NSdWHZ_vu-wAV0Hr-281">
          <mxGeometry relative="1" as="geometry">
            <Array as="points">
              <mxPoint x="1466" y="2241" />
            </Array>
          </mxGeometry>
        </mxCell>
        <mxCell id="UL_1NSdWHZ_vu-wAV0Hr-337" value="room details" style="verticalAlign=bottom;edgeStyle=elbowEdgeStyle;elbow=vertical;curved=0;rounded=0;dashed=1;dashPattern=2 3;endArrow=block;" edge="1" parent="1" source="UL_1NSdWHZ_vu-wAV0Hr-281" target="UL_1NSdWHZ_vu-wAV0Hr-277">
          <mxGeometry relative="1" as="geometry">
            <Array as="points">
              <mxPoint x="1469" y="2289" />
            </Array>
          </mxGeometry>
        </mxCell>
        <mxCell id="UL_1NSdWHZ_vu-wAV0Hr-338" value="room data" style="verticalAlign=bottom;edgeStyle=elbowEdgeStyle;elbow=vertical;curved=0;rounded=0;dashed=1;dashPattern=2 3;endArrow=block;" edge="1" parent="1" source="UL_1NSdWHZ_vu-wAV0Hr-277" target="UL_1NSdWHZ_vu-wAV0Hr-276">
          <mxGeometry relative="1" as="geometry">
            <Array as="points">
              <mxPoint x="686" y="2337" />
            </Array>
          </mxGeometry>
        </mxCell>
        <mxCell id="UL_1NSdWHZ_vu-wAV0Hr-339" value="display reservation form" style="verticalAlign=bottom;edgeStyle=elbowEdgeStyle;elbow=vertical;curved=0;rounded=0;dashed=1;dashPattern=2 3;endArrow=block;" edge="1" parent="1" source="UL_1NSdWHZ_vu-wAV0Hr-276" target="UL_1NSdWHZ_vu-wAV0Hr-275">
          <mxGeometry relative="1" as="geometry">
            <Array as="points">
              <mxPoint x="270" y="2385" />
            </Array>
          </mxGeometry>
        </mxCell>
        <mxCell id="UL_1NSdWHZ_vu-wAV0Hr-340" value="Enter information and confirm" style="verticalAlign=bottom;edgeStyle=elbowEdgeStyle;elbow=vertical;curved=0;rounded=0;endArrow=block;" edge="1" parent="1" source="UL_1NSdWHZ_vu-wAV0Hr-275" target="UL_1NSdWHZ_vu-wAV0Hr-276">
          <mxGeometry relative="1" as="geometry">
            <Array as="points">
              <mxPoint x="267" y="2433" />
            </Array>
          </mxGeometry>
        </mxCell>
        <mxCell id="UL_1NSdWHZ_vu-wAV0Hr-341" value="POST /rooms/{roomId}/block" style="verticalAlign=bottom;edgeStyle=elbowEdgeStyle;elbow=vertical;curved=0;rounded=0;endArrow=block;" edge="1" parent="1" source="UL_1NSdWHZ_vu-wAV0Hr-276" target="UL_1NSdWHZ_vu-wAV0Hr-277">
          <mxGeometry relative="1" as="geometry">
            <Array as="points">
              <mxPoint x="683" y="2481" />
            </Array>
          </mxGeometry>
        </mxCell>
        <mxCell id="UL_1NSdWHZ_vu-wAV0Hr-342" value="validateToken(token)" style="verticalAlign=bottom;edgeStyle=elbowEdgeStyle;elbow=vertical;curved=0;rounded=0;endArrow=block;" edge="1" parent="1" source="UL_1NSdWHZ_vu-wAV0Hr-277" target="UL_1NSdWHZ_vu-wAV0Hr-278">
          <mxGeometry relative="1" as="geometry">
            <Array as="points">
              <mxPoint x="1079" y="2576" />
            </Array>
          </mxGeometry>
        </mxCell>
        <mxCell id="UL_1NSdWHZ_vu-wAV0Hr-343" value="token valid" style="verticalAlign=bottom;edgeStyle=elbowEdgeStyle;elbow=vertical;curved=0;rounded=0;dashed=1;dashPattern=2 3;endArrow=block;" edge="1" parent="1" source="UL_1NSdWHZ_vu-wAV0Hr-278" target="UL_1NSdWHZ_vu-wAV0Hr-277">
          <mxGeometry relative="1" as="geometry">
            <Array as="points">
              <mxPoint x="1082" y="2624" />
            </Array>
          </mxGeometry>
        </mxCell>
        <mxCell id="UL_1NSdWHZ_vu-wAV0Hr-344" value="blockTemporarily(roomId, 15min)" style="verticalAlign=bottom;edgeStyle=elbowEdgeStyle;elbow=vertical;curved=0;rounded=0;endArrow=block;" edge="1" parent="1" source="UL_1NSdWHZ_vu-wAV0Hr-277" target="UL_1NSdWHZ_vu-wAV0Hr-281">
          <mxGeometry relative="1" as="geometry">
            <Array as="points">
              <mxPoint x="1466" y="2672" />
            </Array>
          </mxGeometry>
        </mxCell>
        <mxCell id="UL_1NSdWHZ_vu-wAV0Hr-345" value="block confirmation" style="verticalAlign=bottom;edgeStyle=elbowEdgeStyle;elbow=vertical;curved=0;rounded=0;dashed=1;dashPattern=2 3;endArrow=block;" edge="1" parent="1" source="UL_1NSdWHZ_vu-wAV0Hr-281" target="UL_1NSdWHZ_vu-wAV0Hr-277">
          <mxGeometry relative="1" as="geometry">
            <Array as="points">
              <mxPoint x="1469" y="2720" />
            </Array>
          </mxGeometry>
        </mxCell>
        <mxCell id="UL_1NSdWHZ_vu-wAV0Hr-346" value="block confirmed" style="verticalAlign=bottom;edgeStyle=elbowEdgeStyle;elbow=vertical;curved=0;rounded=0;dashed=1;dashPattern=2 3;endArrow=block;" edge="1" parent="1" source="UL_1NSdWHZ_vu-wAV0Hr-277" target="UL_1NSdWHZ_vu-wAV0Hr-276">
          <mxGeometry relative="1" as="geometry">
            <Array as="points">
              <mxPoint x="686" y="2768" />
            </Array>
          </mxGeometry>
        </mxCell>
        <mxCell id="UL_1NSdWHZ_vu-wAV0Hr-347" value="POST /reservations" style="verticalAlign=bottom;edgeStyle=elbowEdgeStyle;elbow=vertical;curved=0;rounded=0;endArrow=block;" edge="1" parent="1" source="UL_1NSdWHZ_vu-wAV0Hr-276" target="UL_1NSdWHZ_vu-wAV0Hr-277">
          <mxGeometry relative="1" as="geometry">
            <Array as="points">
              <mxPoint x="683" y="2816" />
            </Array>
          </mxGeometry>
        </mxCell>
        <mxCell id="UL_1NSdWHZ_vu-wAV0Hr-348" value="validateToken(token)" style="verticalAlign=bottom;edgeStyle=elbowEdgeStyle;elbow=vertical;curved=0;rounded=0;endArrow=block;" edge="1" parent="1" source="UL_1NSdWHZ_vu-wAV0Hr-277" target="UL_1NSdWHZ_vu-wAV0Hr-278">
          <mxGeometry relative="1" as="geometry">
            <Array as="points">
              <mxPoint x="1079" y="2958" />
            </Array>
          </mxGeometry>
        </mxCell>
        <mxCell id="UL_1NSdWHZ_vu-wAV0Hr-349" value="token valid" style="verticalAlign=bottom;edgeStyle=elbowEdgeStyle;elbow=vertical;curved=0;rounded=0;dashed=1;dashPattern=2 3;endArrow=block;" edge="1" parent="1" source="UL_1NSdWHZ_vu-wAV0Hr-278" target="UL_1NSdWHZ_vu-wAV0Hr-277">
          <mxGeometry relative="1" as="geometry">
            <Array as="points">
              <mxPoint x="1082" y="3006" />
            </Array>
          </mxGeometry>
        </mxCell>
        <mxCell id="UL_1NSdWHZ_vu-wAV0Hr-350" value="createReservation(data)" style="verticalAlign=bottom;edgeStyle=elbowEdgeStyle;elbow=vertical;curved=0;rounded=0;endArrow=block;" edge="1" parent="1" source="UL_1NSdWHZ_vu-wAV0Hr-277" target="UL_1NSdWHZ_vu-wAV0Hr-282">
          <mxGeometry relative="1" as="geometry">
            <Array as="points">
              <mxPoint x="1629" y="3054" />
            </Array>
          </mxGeometry>
        </mxCell>
        <mxCell id="UL_1NSdWHZ_vu-wAV0Hr-351" value="checkAvailability(roomId, dates)" style="verticalAlign=bottom;edgeStyle=elbowEdgeStyle;elbow=vertical;curved=0;rounded=0;endArrow=block;" edge="1" parent="1" source="UL_1NSdWHZ_vu-wAV0Hr-282" target="UL_1NSdWHZ_vu-wAV0Hr-281">
          <mxGeometry relative="1" as="geometry">
            <Array as="points">
              <mxPoint x="2163" y="3102" />
            </Array>
          </mxGeometry>
        </mxCell>
        <mxCell id="UL_1NSdWHZ_vu-wAV0Hr-352" value="availability confirmation" style="verticalAlign=bottom;edgeStyle=elbowEdgeStyle;elbow=vertical;curved=0;rounded=0;dashed=1;dashPattern=2 3;endArrow=block;" edge="1" parent="1" source="UL_1NSdWHZ_vu-wAV0Hr-281" target="UL_1NSdWHZ_vu-wAV0Hr-282">
          <mxGeometry relative="1" as="geometry">
            <Array as="points">
              <mxPoint x="2160" y="3150" />
            </Array>
          </mxGeometry>
        </mxCell>
        <mxCell id="UL_1NSdWHZ_vu-wAV0Hr-353" value="reservation created with status=&quot;PENDING&quot;" style="verticalAlign=bottom;edgeStyle=elbowEdgeStyle;elbow=vertical;curved=0;rounded=0;dashed=1;dashPattern=2 3;endArrow=block;" edge="1" parent="1" source="UL_1NSdWHZ_vu-wAV0Hr-282" target="UL_1NSdWHZ_vu-wAV0Hr-277">
          <mxGeometry relative="1" as="geometry">
            <Array as="points">
              <mxPoint x="1632" y="3198" />
            </Array>
          </mxGeometry>
        </mxCell>
        <mxCell id="UL_1NSdWHZ_vu-wAV0Hr-354" value="reservation data" style="verticalAlign=bottom;edgeStyle=elbowEdgeStyle;elbow=vertical;curved=0;rounded=0;dashed=1;dashPattern=2 3;endArrow=block;" edge="1" parent="1" source="UL_1NSdWHZ_vu-wAV0Hr-277" target="UL_1NSdWHZ_vu-wAV0Hr-276">
          <mxGeometry relative="1" as="geometry">
            <Array as="points">
              <mxPoint x="686" y="3246" />
            </Array>
          </mxGeometry>
        </mxCell>
        <mxCell id="UL_1NSdWHZ_vu-wAV0Hr-355" value="display reservation summary" style="verticalAlign=bottom;edgeStyle=elbowEdgeStyle;elbow=vertical;curved=0;rounded=0;dashed=1;dashPattern=2 3;endArrow=block;" edge="1" parent="1" source="UL_1NSdWHZ_vu-wAV0Hr-276" target="UL_1NSdWHZ_vu-wAV0Hr-275">
          <mxGeometry relative="1" as="geometry">
            <Array as="points">
              <mxPoint x="270" y="3294" />
            </Array>
          </mxGeometry>
        </mxCell>
        <mxCell id="UL_1NSdWHZ_vu-wAV0Hr-356" value="Enter payment details" style="verticalAlign=bottom;edgeStyle=elbowEdgeStyle;elbow=vertical;curved=0;rounded=0;endArrow=block;" edge="1" parent="1" source="UL_1NSdWHZ_vu-wAV0Hr-275" target="UL_1NSdWHZ_vu-wAV0Hr-276">
          <mxGeometry relative="1" as="geometry">
            <Array as="points">
              <mxPoint x="267" y="3342" />
            </Array>
          </mxGeometry>
        </mxCell>
        <mxCell id="UL_1NSdWHZ_vu-wAV0Hr-357" value="POST /payments" style="verticalAlign=bottom;edgeStyle=elbowEdgeStyle;elbow=vertical;curved=0;rounded=0;endArrow=block;" edge="1" parent="1" source="UL_1NSdWHZ_vu-wAV0Hr-276" target="UL_1NSdWHZ_vu-wAV0Hr-277">
          <mxGeometry relative="1" as="geometry">
            <Array as="points">
              <mxPoint x="683" y="3390" />
            </Array>
          </mxGeometry>
        </mxCell>
        <mxCell id="UL_1NSdWHZ_vu-wAV0Hr-358" value="validateToken(token)" style="verticalAlign=bottom;edgeStyle=elbowEdgeStyle;elbow=vertical;curved=0;rounded=0;endArrow=block;" edge="1" parent="1" source="UL_1NSdWHZ_vu-wAV0Hr-277" target="UL_1NSdWHZ_vu-wAV0Hr-278">
          <mxGeometry relative="1" as="geometry">
            <Array as="points">
              <mxPoint x="1079" y="3532" />
            </Array>
          </mxGeometry>
        </mxCell>
        <mxCell id="UL_1NSdWHZ_vu-wAV0Hr-359" value="token valid" style="verticalAlign=bottom;edgeStyle=elbowEdgeStyle;elbow=vertical;curved=0;rounded=0;dashed=1;dashPattern=2 3;endArrow=block;" edge="1" parent="1" source="UL_1NSdWHZ_vu-wAV0Hr-278" target="UL_1NSdWHZ_vu-wAV0Hr-277">
          <mxGeometry relative="1" as="geometry">
            <Array as="points">
              <mxPoint x="1082" y="3580" />
            </Array>
          </mxGeometry>
        </mxCell>
        <mxCell id="UL_1NSdWHZ_vu-wAV0Hr-360" value="processPayment(data)" style="verticalAlign=bottom;edgeStyle=elbowEdgeStyle;elbow=vertical;curved=0;rounded=0;endArrow=block;" edge="1" parent="1" source="UL_1NSdWHZ_vu-wAV0Hr-277" target="UL_1NSdWHZ_vu-wAV0Hr-283">
          <mxGeometry relative="1" as="geometry">
            <Array as="points">
              <mxPoint x="1737" y="3628" />
            </Array>
          </mxGeometry>
        </mxCell>
        <mxCell id="UL_1NSdWHZ_vu-wAV0Hr-361" value="payment processed" style="verticalAlign=bottom;edgeStyle=elbowEdgeStyle;elbow=vertical;curved=0;rounded=0;dashed=1;dashPattern=2 3;endArrow=block;" edge="1" parent="1" source="UL_1NSdWHZ_vu-wAV0Hr-283" target="UL_1NSdWHZ_vu-wAV0Hr-277">
          <mxGeometry relative="1" as="geometry">
            <Array as="points">
              <mxPoint x="1740" y="3721" />
            </Array>
          </mxGeometry>
        </mxCell>
        <mxCell id="UL_1NSdWHZ_vu-wAV0Hr-362" value="updateStatus(reservationId, &quot;CONFIRMED&quot;)" style="verticalAlign=bottom;edgeStyle=elbowEdgeStyle;elbow=vertical;curved=0;rounded=0;endArrow=block;" edge="1" parent="1" source="UL_1NSdWHZ_vu-wAV0Hr-277" target="UL_1NSdWHZ_vu-wAV0Hr-282">
          <mxGeometry relative="1" as="geometry">
            <Array as="points">
              <mxPoint x="1629" y="3769" />
            </Array>
          </mxGeometry>
        </mxCell>
        <mxCell id="UL_1NSdWHZ_vu-wAV0Hr-363" value="status updated" style="verticalAlign=bottom;edgeStyle=elbowEdgeStyle;elbow=vertical;curved=0;rounded=0;dashed=1;dashPattern=2 3;endArrow=block;" edge="1" parent="1" source="UL_1NSdWHZ_vu-wAV0Hr-282" target="UL_1NSdWHZ_vu-wAV0Hr-277">
          <mxGeometry relative="1" as="geometry">
            <Array as="points">
              <mxPoint x="1632" y="3817" />
            </Array>
          </mxGeometry>
        </mxCell>
        <mxCell id="UL_1NSdWHZ_vu-wAV0Hr-364" value="createNotification(customerId, &quot;RESERVATION_CONFIRMED&quot;)" style="verticalAlign=bottom;edgeStyle=elbowEdgeStyle;elbow=vertical;curved=0;rounded=0;endArrow=block;" edge="1" parent="1" source="UL_1NSdWHZ_vu-wAV0Hr-277" target="UL_1NSdWHZ_vu-wAV0Hr-284">
          <mxGeometry relative="1" as="geometry">
            <Array as="points">
              <mxPoint x="1845" y="3867" />
            </Array>
          </mxGeometry>
        </mxCell>
        <mxCell id="UL_1NSdWHZ_vu-wAV0Hr-365" value="sendEmail(customerEmail, &quot;Reservation Confirmed&quot;)" style="verticalAlign=bottom;edgeStyle=elbowEdgeStyle;elbow=vertical;curved=0;rounded=0;endArrow=block;" edge="1" parent="1" source="UL_1NSdWHZ_vu-wAV0Hr-284" target="UL_1NSdWHZ_vu-wAV0Hr-285">
          <mxGeometry relative="1" as="geometry">
            <Array as="points">
              <mxPoint x="3002" y="3915" />
            </Array>
          </mxGeometry>
        </mxCell>
        <mxCell id="UL_1NSdWHZ_vu-wAV0Hr-366" value="email sent" style="verticalAlign=bottom;edgeStyle=elbowEdgeStyle;elbow=vertical;curved=0;rounded=0;dashed=1;dashPattern=2 3;endArrow=block;" edge="1" parent="1" source="UL_1NSdWHZ_vu-wAV0Hr-285" target="UL_1NSdWHZ_vu-wAV0Hr-284">
          <mxGeometry relative="1" as="geometry">
            <Array as="points">
              <mxPoint x="3005" y="3963" />
            </Array>
          </mxGeometry>
        </mxCell>
        <mxCell id="UL_1NSdWHZ_vu-wAV0Hr-367" value="notification created" style="verticalAlign=bottom;edgeStyle=elbowEdgeStyle;elbow=vertical;curved=0;rounded=0;dashed=1;dashPattern=2 3;endArrow=block;" edge="1" parent="1" source="UL_1NSdWHZ_vu-wAV0Hr-284" target="UL_1NSdWHZ_vu-wAV0Hr-277">
          <mxGeometry relative="1" as="geometry">
            <Array as="points">
              <mxPoint x="1848" y="4011" />
            </Array>
          </mxGeometry>
        </mxCell>
        <mxCell id="UL_1NSdWHZ_vu-wAV0Hr-368" value="createNotification(hotelAdminId, &quot;NEW_RESERVATION&quot;)" style="verticalAlign=bottom;edgeStyle=elbowEdgeStyle;elbow=vertical;curved=0;rounded=0;endArrow=block;" edge="1" parent="1" source="UL_1NSdWHZ_vu-wAV0Hr-277" target="UL_1NSdWHZ_vu-wAV0Hr-284">
          <mxGeometry relative="1" as="geometry">
            <Array as="points">
              <mxPoint x="1845" y="4061" />
            </Array>
          </mxGeometry>
        </mxCell>
        <mxCell id="UL_1NSdWHZ_vu-wAV0Hr-369" value="notification created" style="verticalAlign=bottom;edgeStyle=elbowEdgeStyle;elbow=vertical;curved=0;rounded=0;dashed=1;dashPattern=2 3;endArrow=block;" edge="1" parent="1" source="UL_1NSdWHZ_vu-wAV0Hr-284" target="UL_1NSdWHZ_vu-wAV0Hr-277">
          <mxGeometry relative="1" as="geometry">
            <Array as="points">
              <mxPoint x="1848" y="4109" />
            </Array>
          </mxGeometry>
        </mxCell>
        <mxCell id="UL_1NSdWHZ_vu-wAV0Hr-370" value="reservation confirmation" style="verticalAlign=bottom;edgeStyle=elbowEdgeStyle;elbow=vertical;curved=0;rounded=0;dashed=1;dashPattern=2 3;endArrow=block;" edge="1" parent="1" source="UL_1NSdWHZ_vu-wAV0Hr-277" target="UL_1NSdWHZ_vu-wAV0Hr-276">
          <mxGeometry relative="1" as="geometry">
            <Array as="points">
              <mxPoint x="686" y="4157" />
            </Array>
          </mxGeometry>
        </mxCell>
        <mxCell id="UL_1NSdWHZ_vu-wAV0Hr-371" value="display confirmation and details" style="verticalAlign=bottom;edgeStyle=elbowEdgeStyle;elbow=vertical;curved=0;rounded=0;dashed=1;dashPattern=2 3;endArrow=block;" edge="1" parent="1" source="UL_1NSdWHZ_vu-wAV0Hr-276" target="UL_1NSdWHZ_vu-wAV0Hr-275">
          <mxGeometry relative="1" as="geometry">
            <Array as="points">
              <mxPoint x="270" y="4205" />
            </Array>
          </mxGeometry>
        </mxCell>
        <mxCell id="UL_1NSdWHZ_vu-wAV0Hr-372" value="payment error" style="verticalAlign=bottom;edgeStyle=elbowEdgeStyle;elbow=vertical;curved=0;rounded=0;dashed=1;dashPattern=2 3;endArrow=block;" edge="1" parent="1" source="UL_1NSdWHZ_vu-wAV0Hr-283" target="UL_1NSdWHZ_vu-wAV0Hr-277">
          <mxGeometry relative="1" as="geometry">
            <Array as="points">
              <mxPoint x="1740" y="4298" />
            </Array>
          </mxGeometry>
        </mxCell>
        <mxCell id="UL_1NSdWHZ_vu-wAV0Hr-373" value="unblock(roomId)" style="verticalAlign=bottom;edgeStyle=elbowEdgeStyle;elbow=vertical;curved=0;rounded=0;endArrow=block;" edge="1" parent="1" source="UL_1NSdWHZ_vu-wAV0Hr-277" target="UL_1NSdWHZ_vu-wAV0Hr-281">
          <mxGeometry relative="1" as="geometry">
            <Array as="points">
              <mxPoint x="1466" y="4346" />
            </Array>
          </mxGeometry>
        </mxCell>
        <mxCell id="UL_1NSdWHZ_vu-wAV0Hr-374" value="block released" style="verticalAlign=bottom;edgeStyle=elbowEdgeStyle;elbow=vertical;curved=0;rounded=0;dashed=1;dashPattern=2 3;endArrow=block;" edge="1" parent="1" source="UL_1NSdWHZ_vu-wAV0Hr-281" target="UL_1NSdWHZ_vu-wAV0Hr-277">
          <mxGeometry relative="1" as="geometry">
            <Array as="points">
              <mxPoint x="1469" y="4394" />
            </Array>
          </mxGeometry>
        </mxCell>
        <mxCell id="UL_1NSdWHZ_vu-wAV0Hr-375" value="updateStatus(reservationId, &quot;CANCELLED&quot;)" style="verticalAlign=bottom;edgeStyle=elbowEdgeStyle;elbow=vertical;curved=0;rounded=0;endArrow=block;" edge="1" parent="1" source="UL_1NSdWHZ_vu-wAV0Hr-277" target="UL_1NSdWHZ_vu-wAV0Hr-282">
          <mxGeometry relative="1" as="geometry">
            <Array as="points">
              <mxPoint x="1629" y="4442" />
            </Array>
          </mxGeometry>
        </mxCell>
        <mxCell id="UL_1NSdWHZ_vu-wAV0Hr-376" value="status updated" style="verticalAlign=bottom;edgeStyle=elbowEdgeStyle;elbow=vertical;curved=0;rounded=0;dashed=1;dashPattern=2 3;endArrow=block;" edge="1" parent="1" source="UL_1NSdWHZ_vu-wAV0Hr-282" target="UL_1NSdWHZ_vu-wAV0Hr-277">
          <mxGeometry relative="1" as="geometry">
            <Array as="points">
              <mxPoint x="1632" y="4490" />
            </Array>
          </mxGeometry>
        </mxCell>
        <mxCell id="UL_1NSdWHZ_vu-wAV0Hr-377" value="payment error" style="verticalAlign=bottom;edgeStyle=elbowEdgeStyle;elbow=vertical;curved=0;rounded=0;dashed=1;dashPattern=2 3;endArrow=block;" edge="1" parent="1" source="UL_1NSdWHZ_vu-wAV0Hr-277" target="UL_1NSdWHZ_vu-wAV0Hr-276">
          <mxGeometry relative="1" as="geometry">
            <Array as="points">
              <mxPoint x="686" y="4538" />
            </Array>
          </mxGeometry>
        </mxCell>
        <mxCell id="UL_1NSdWHZ_vu-wAV0Hr-378" value="display error and options" style="verticalAlign=bottom;edgeStyle=elbowEdgeStyle;elbow=vertical;curved=0;rounded=0;dashed=1;dashPattern=2 3;endArrow=block;" edge="1" parent="1" source="UL_1NSdWHZ_vu-wAV0Hr-276" target="UL_1NSdWHZ_vu-wAV0Hr-275">
          <mxGeometry relative="1" as="geometry">
            <Array as="points">
              <mxPoint x="270" y="4586" />
            </Array>
          </mxGeometry>
        </mxCell>
        <mxCell id="UL_1NSdWHZ_vu-wAV0Hr-379" value="real-time notification" style="verticalAlign=bottom;edgeStyle=elbowEdgeStyle;elbow=vertical;curved=0;rounded=0;endArrow=block;" edge="1" parent="1" source="UL_1NSdWHZ_vu-wAV0Hr-284" target="UL_1NSdWHZ_vu-wAV0Hr-286">
          <mxGeometry relative="1" as="geometry">
            <Array as="points">
              <mxPoint x="3102" y="4644" />
            </Array>
          </mxGeometry>
        </mxCell>
        <mxCell id="UL_1NSdWHZ_vu-wAV0Hr-380" value="Review reservation details" style="verticalAlign=bottom;edgeStyle=elbowEdgeStyle;elbow=vertical;curved=0;rounded=0;endArrow=block;" edge="1" parent="1" source="UL_1NSdWHZ_vu-wAV0Hr-286" target="UL_1NSdWHZ_vu-wAV0Hr-276">
          <mxGeometry relative="1" as="geometry">
            <Array as="points">
              <mxPoint x="1942" y="4692" />
            </Array>
          </mxGeometry>
        </mxCell>
        <mxCell id="UL_1NSdWHZ_vu-wAV0Hr-381" value="Accept reservation" style="verticalAlign=bottom;edgeStyle=elbowEdgeStyle;elbow=vertical;curved=0;rounded=0;endArrow=block;" edge="1" parent="1" source="UL_1NSdWHZ_vu-wAV0Hr-286" target="UL_1NSdWHZ_vu-wAV0Hr-276">
          <mxGeometry relative="1" as="geometry">
            <Array as="points">
              <mxPoint x="1942" y="4785" />
            </Array>
          </mxGeometry>
        </mxCell>
        <mxCell id="UL_1NSdWHZ_vu-wAV0Hr-382" value="PATCH /reservations/{reservationId}" style="verticalAlign=bottom;edgeStyle=elbowEdgeStyle;elbow=vertical;curved=0;rounded=0;endArrow=block;" edge="1" parent="1" source="UL_1NSdWHZ_vu-wAV0Hr-276" target="UL_1NSdWHZ_vu-wAV0Hr-277">
          <mxGeometry relative="1" as="geometry">
            <Array as="points">
              <mxPoint x="683" y="4833" />
            </Array>
          </mxGeometry>
        </mxCell>
        <mxCell id="UL_1NSdWHZ_vu-wAV0Hr-383" value="validateToken(adminToken)" style="verticalAlign=bottom;edgeStyle=elbowEdgeStyle;elbow=vertical;curved=0;rounded=0;endArrow=block;" edge="1" parent="1" source="UL_1NSdWHZ_vu-wAV0Hr-277" target="UL_1NSdWHZ_vu-wAV0Hr-278">
          <mxGeometry relative="1" as="geometry">
            <Array as="points">
              <mxPoint x="1079" y="4928" />
            </Array>
          </mxGeometry>
        </mxCell>
        <mxCell id="UL_1NSdWHZ_vu-wAV0Hr-384" value="token valid" style="verticalAlign=bottom;edgeStyle=elbowEdgeStyle;elbow=vertical;curved=0;rounded=0;dashed=1;dashPattern=2 3;endArrow=block;" edge="1" parent="1" source="UL_1NSdWHZ_vu-wAV0Hr-278" target="UL_1NSdWHZ_vu-wAV0Hr-277">
          <mxGeometry relative="1" as="geometry">
            <Array as="points">
              <mxPoint x="1082" y="4976" />
            </Array>
          </mxGeometry>
        </mxCell>
        <mxCell id="UL_1NSdWHZ_vu-wAV0Hr-385" value="updateStatus(reservationId, &quot;CONFIRMED&quot;)" style="verticalAlign=bottom;edgeStyle=elbowEdgeStyle;elbow=vertical;curved=0;rounded=0;endArrow=block;" edge="1" parent="1" source="UL_1NSdWHZ_vu-wAV0Hr-277" target="UL_1NSdWHZ_vu-wAV0Hr-282">
          <mxGeometry relative="1" as="geometry">
            <Array as="points">
              <mxPoint x="1629" y="5024" />
            </Array>
          </mxGeometry>
        </mxCell>
        <mxCell id="UL_1NSdWHZ_vu-wAV0Hr-386" value="status updated" style="verticalAlign=bottom;edgeStyle=elbowEdgeStyle;elbow=vertical;curved=0;rounded=0;dashed=1;dashPattern=2 3;endArrow=block;" edge="1" parent="1" source="UL_1NSdWHZ_vu-wAV0Hr-282" target="UL_1NSdWHZ_vu-wAV0Hr-277">
          <mxGeometry relative="1" as="geometry">
            <Array as="points">
              <mxPoint x="1632" y="5072" />
            </Array>
          </mxGeometry>
        </mxCell>
        <mxCell id="UL_1NSdWHZ_vu-wAV0Hr-387" value="createNotification(customerId, &quot;RESERVATION_CONFIRMED&quot;)" style="verticalAlign=bottom;edgeStyle=elbowEdgeStyle;elbow=vertical;curved=0;rounded=0;endArrow=block;" edge="1" parent="1" source="UL_1NSdWHZ_vu-wAV0Hr-277" target="UL_1NSdWHZ_vu-wAV0Hr-284">
          <mxGeometry relative="1" as="geometry">
            <Array as="points">
              <mxPoint x="1845" y="5122" />
            </Array>
          </mxGeometry>
        </mxCell>
        <mxCell id="UL_1NSdWHZ_vu-wAV0Hr-388" value="sendEmail(customerEmail, &quot;Reservation Confirmed&quot;)" style="verticalAlign=bottom;edgeStyle=elbowEdgeStyle;elbow=vertical;curved=0;rounded=0;endArrow=block;" edge="1" parent="1" source="UL_1NSdWHZ_vu-wAV0Hr-284" target="UL_1NSdWHZ_vu-wAV0Hr-285">
          <mxGeometry relative="1" as="geometry">
            <Array as="points">
              <mxPoint x="3002" y="5170" />
            </Array>
          </mxGeometry>
        </mxCell>
        <mxCell id="UL_1NSdWHZ_vu-wAV0Hr-389" value="email sent" style="verticalAlign=bottom;edgeStyle=elbowEdgeStyle;elbow=vertical;curved=0;rounded=0;dashed=1;dashPattern=2 3;endArrow=block;" edge="1" parent="1" source="UL_1NSdWHZ_vu-wAV0Hr-285" target="UL_1NSdWHZ_vu-wAV0Hr-284">
          <mxGeometry relative="1" as="geometry">
            <Array as="points">
              <mxPoint x="3005" y="5218" />
            </Array>
          </mxGeometry>
        </mxCell>
        <mxCell id="UL_1NSdWHZ_vu-wAV0Hr-390" value="notification created" style="verticalAlign=bottom;edgeStyle=elbowEdgeStyle;elbow=vertical;curved=0;rounded=0;dashed=1;dashPattern=2 3;endArrow=block;" edge="1" parent="1" source="UL_1NSdWHZ_vu-wAV0Hr-284" target="UL_1NSdWHZ_vu-wAV0Hr-277">
          <mxGeometry relative="1" as="geometry">
            <Array as="points">
              <mxPoint x="1848" y="5266" />
            </Array>
          </mxGeometry>
        </mxCell>
        <mxCell id="UL_1NSdWHZ_vu-wAV0Hr-391" value="confirmation updated" style="verticalAlign=bottom;edgeStyle=elbowEdgeStyle;elbow=vertical;curved=0;rounded=0;dashed=1;dashPattern=2 3;endArrow=block;" edge="1" parent="1" source="UL_1NSdWHZ_vu-wAV0Hr-277" target="UL_1NSdWHZ_vu-wAV0Hr-276">
          <mxGeometry relative="1" as="geometry">
            <Array as="points">
              <mxPoint x="686" y="5314" />
            </Array>
          </mxGeometry>
        </mxCell>
        <mxCell id="UL_1NSdWHZ_vu-wAV0Hr-392" value="real-time notification" style="verticalAlign=bottom;edgeStyle=elbowEdgeStyle;elbow=vertical;curved=0;rounded=0;endArrow=block;" edge="1" parent="1" source="UL_1NSdWHZ_vu-wAV0Hr-284" target="UL_1NSdWHZ_vu-wAV0Hr-275">
          <mxGeometry relative="1" as="geometry">
            <Array as="points">
              <mxPoint x="1432" y="5362" />
            </Array>
          </mxGeometry>
        </mxCell>
        <mxCell id="UL_1NSdWHZ_vu-wAV0Hr-393" value="Skip login steps" style="fillColor=#ffff88;strokeColor=#9E916F;" vertex="1" parent="1">
          <mxGeometry x="70" y="1341" width="377" height="47" as="geometry" />
        </mxCell>
        <mxCell id="UL_1NSdWHZ_vu-wAV0Hr-394" value="Authorization: Bearer {token}" style="fillColor=#ffff88;strokeColor=#9E916F;" vertex="1" parent="1">
          <mxGeometry x="447" y="1494" width="261" height="47" as="geometry" />
        </mxCell>
        <mxCell id="UL_1NSdWHZ_vu-wAV0Hr-395" value="Authorization: Bearer {token}" style="fillColor=#ffff88;strokeColor=#9E916F;" vertex="1" parent="1">
          <mxGeometry x="447" y="2501" width="261" height="47" as="geometry" />
        </mxCell>
        <mxCell id="UL_1NSdWHZ_vu-wAV0Hr-396" value="{roomId, hotelId, userId, dates, guests, etc.}" style="fillColor=#ffff88;strokeColor=#9E916F;" vertex="1" parent="1">
          <mxGeometry x="447" y="2836" width="380" height="47" as="geometry" />
        </mxCell>
        <mxCell id="UL_1NSdWHZ_vu-wAV0Hr-397" value="Authorization: Bearer {token}" style="fillColor=#ffff88;strokeColor=#9E916F;" vertex="1" parent="1">
          <mxGeometry x="447" y="2883" width="261" height="47" as="geometry" />
        </mxCell>
        <mxCell id="UL_1NSdWHZ_vu-wAV0Hr-398" value="{reservationId, method, amount, etc.}" style="fillColor=#ffff88;strokeColor=#9E916F;" vertex="1" parent="1">
          <mxGeometry x="447" y="3410" width="330" height="47" as="geometry" />
        </mxCell>
        <mxCell id="UL_1NSdWHZ_vu-wAV0Hr-399" value="Authorization: Bearer {token}" style="fillColor=#ffff88;strokeColor=#9E916F;" vertex="1" parent="1">
          <mxGeometry x="447" y="3457" width="261" height="47" as="geometry" />
        </mxCell>
        <mxCell id="UL_1NSdWHZ_vu-wAV0Hr-400" value="Authorization: Bearer {adminToken}" style="fillColor=#ffff88;strokeColor=#9E916F;" vertex="1" parent="1">
          <mxGeometry x="447" y="4853" width="312" height="47" as="geometry" />
        </mxCell>
      </root>
    </mxGraphModel>
  </diagram>
</mxfile>
